<svg width="16" height="16" viewBox="0 0 16 16" fill="none" xmlns="http://www.w3.org/2000/svg">
<path d="M11.3334 6.1133C11.2085 5.98913 11.0395 5.91943 10.8634 5.91943C10.6873 5.91943 10.5183 5.98913 10.3934 6.1133L8.00007 8.47329L5.64007 6.1133C5.51516 5.98913 5.34619 5.91943 5.17007 5.91943C4.99394 5.91943 4.82498 5.98913 4.70007 6.1133C4.63758 6.17527 4.58799 6.249 4.55414 6.33024C4.52029 6.41148 4.50287 6.49862 4.50287 6.58663C4.50287 6.67464 4.52029 6.76177 4.55414 6.84301C4.58799 6.92425 4.63758 6.99799 4.70007 7.05996L7.52673 9.88663C7.58871 9.94911 7.66244 9.99871 7.74368 10.0326C7.82492 10.0664 7.91206 10.0838 8.00007 10.0838C8.08808 10.0838 8.17521 10.0664 8.25645 10.0326C8.33769 9.99871 8.41143 9.94911 8.4734 9.88663L11.3334 7.05996C11.3959 6.99799 11.4455 6.92425 11.4793 6.84301C11.5132 6.76177 11.5306 6.67464 11.5306 6.58663C11.5306 6.49862 11.5132 6.41148 11.4793 6.33024C11.4455 6.249 11.3959 6.17527 11.3334 6.1133Z" fill="#747474"/>
</svg>
