<svg width="20" height="21" viewBox="0 0 20 21" fill="none" xmlns="http://www.w3.org/2000/svg">
<rect y="0.5" width="20" height="20" rx="5" fill="#0129E3"/>
<path d="M14.4733 7.26592C14.4114 7.20344 14.3376 7.15384 14.2564 7.12C14.1752 7.08615 14.088 7.06873 14 7.06873C13.912 7.06873 13.8249 7.08615 13.7436 7.12C13.6624 7.15384 13.5886 7.20344 13.5267 7.26592L8.56001 12.2393L6.47334 10.1459C6.40899 10.0838 6.33303 10.0349 6.2498 10.0021C6.16656 9.96928 6.07768 9.9532 5.98822 9.95475C5.89877 9.95629 5.8105 9.97544 5.72844 10.0111C5.64639 10.0468 5.57217 10.0982 5.51001 10.1626C5.44785 10.2269 5.39897 10.3029 5.36617 10.3861C5.33337 10.4694 5.31728 10.5583 5.31883 10.6477C5.32038 10.7372 5.33953 10.8254 5.37519 10.9075C5.41085 10.9895 5.46233 11.0638 5.52667 11.1259L8.08667 13.6859C8.14865 13.7484 8.22238 13.798 8.30362 13.8319C8.38486 13.8657 8.472 13.8831 8.56001 13.8831C8.64802 13.8831 8.73515 13.8657 8.81639 13.8319C8.89763 13.798 8.97137 13.7484 9.03334 13.6859L14.4733 8.24592C14.541 8.1835 14.595 8.10773 14.632 8.0234C14.6689 7.93906 14.688 7.84799 14.688 7.75592C14.688 7.66386 14.6689 7.57279 14.632 7.48845C14.595 7.40412 14.541 7.32835 14.4733 7.26592Z" fill="white"/>
</svg>
