<svg width="40" height="40" viewBox="0 0 40 40" fill="none" xmlns="http://www.w3.org/2000/svg">
<path fill-rule="evenodd" clip-rule="evenodd" d="M13.7254 2.32191C13.3576 3.04362 13.3576 3.9884 13.3576 5.87796V13.8376H5.39822C3.50867 13.8376 2.56389 13.8376 1.84217 14.2053C1.20734 14.5288 0.691198 15.0449 0.367732 15.6797C0 16.4015 0 17.3462 0 19.2358V20.7644C0 22.6539 0 23.5987 0.367732 24.3204C0.691198 24.9552 1.20734 25.4714 1.84217 25.7949C2.56389 26.1626 3.50867 26.1626 5.39823 26.1626H13.3576V34.1222C13.3576 36.0118 13.3576 36.9565 13.7254 37.6783C14.0488 38.3131 14.565 38.8292 15.1998 39.1527C15.9215 39.5204 16.8663 39.5204 18.7559 39.5204H20.2844C22.174 39.5204 23.1188 39.5204 23.8405 39.1527C24.4753 38.8292 24.9915 38.3131 25.3149 37.6783C25.6827 36.9565 25.6827 36.0118 25.6827 34.1222V26.1626H33.6425C35.532 26.1626 36.4768 26.1626 37.1985 25.7949C37.8334 25.4714 38.3495 24.9552 38.673 24.3204C39.0407 23.5987 39.0407 22.6539 39.0407 20.7644V19.2358C39.0407 17.3462 39.0407 16.4015 38.673 15.6797C38.3495 15.0449 37.8334 14.5288 37.1985 14.2053C36.4768 13.8376 35.532 13.8376 33.6425 13.8376H25.6827V5.87796C25.6827 3.9884 25.6827 3.04362 25.3149 2.32191C24.9915 1.68707 24.4753 1.17093 23.8405 0.847468C23.1188 0.479736 22.174 0.479736 20.2844 0.479736H18.7559C16.8663 0.479736 15.9215 0.479736 15.1998 0.847468C14.565 1.17093 14.0488 1.68707 13.7254 2.32191Z" fill="url(#paint0_linear_2013_158)"/>
<defs>
<linearGradient id="paint0_linear_2013_158" x1="13.8743" y1="0.479736" x2="21.7926" y2="39.5204" gradientUnits="userSpaceOnUse">
<stop stop-color="#1EFAF7"/>
<stop offset="0.43419" stop-color="#0586EB"/>
<stop offset="0.918967" stop-color="#0028E2"/>
</linearGradient>
</defs>
</svg>
