<svg width="30" height="31" viewBox="0 0 30 31" fill="none" xmlns="http://www.w3.org/2000/svg">
<g clip-path="url(#clip0_2013_368)">
<path d="M22.0467 17.9613C25.9323 14.077 25.9323 7.75662 22.0467 3.87226C18.1612 -0.0121498 11.8389 -0.0121498 7.95325 3.87226C4.06767 7.75662 4.06767 14.077 7.95325 17.9613C9.59798 19.6055 11.6793 20.5535 13.8275 20.8058V24.1411H11.4827C10.8352 24.1411 10.3103 24.6659 10.3103 25.3132C10.3103 25.9605 10.8352 26.4852 11.4827 26.4852H13.8275V29.7869C13.8276 30.4342 14.3525 30.9589 15 30.9589C15.6475 30.9589 16.1724 30.4342 16.1724 29.7869V26.4852H18.5173C19.1648 26.4852 19.6897 25.9605 19.6897 25.3132C19.6897 24.6659 19.1648 24.1411 18.5173 24.1411H16.1724V20.8059C18.3207 20.5535 20.402 19.6055 22.0467 17.9613ZM9.61134 16.3037C6.63999 13.3333 6.63999 8.50017 9.61134 5.52976C12.5826 2.55947 17.4173 2.5593 20.3887 5.52976C23.3601 8.50017 23.3601 13.3333 20.3887 16.3037C17.4174 19.2741 12.5827 19.2741 9.61134 16.3037Z" fill="white"/>
</g>
<defs>
<clipPath id="clip0_2013_368">
<rect width="30" height="30" fill="white" transform="translate(0 0.958984)"/>
</clipPath>
</defs>
</svg>
