<svg width="12" height="14" viewBox="0 0 12 14" fill="none" xmlns="http://www.w3.org/2000/svg">
<path d="M0.666687 6.99992C0.666687 7.17673 0.736925 7.3463 0.861949 7.47132C0.986974 7.59635 1.15654 7.66659 1.33335 7.66659H6.39335L4.86002 9.19325C4.79753 9.25523 4.74794 9.32896 4.71409 9.4102C4.68025 9.49144 4.66282 9.57858 4.66282 9.66659C4.66282 9.75459 4.68025 9.84173 4.71409 9.92297C4.74794 10.0042 4.79753 10.0779 4.86002 10.1399C4.922 10.2024 4.99573 10.252 5.07697 10.2858C5.15821 10.3197 5.24535 10.3371 5.33335 10.3371C5.42136 10.3371 5.5085 10.3197 5.58974 10.2858C5.67098 10.252 5.74471 10.2024 5.80669 10.1399L8.47335 7.47325C8.53405 7.40985 8.58162 7.33509 8.61335 7.25325C8.68003 7.09094 8.68003 6.90889 8.61335 6.74659C8.58162 6.66475 8.53405 6.58999 8.47335 6.52659L5.80669 3.85992C5.74453 3.79776 5.67073 3.74845 5.58952 3.71481C5.50831 3.68117 5.42126 3.66386 5.33335 3.66386C5.24545 3.66386 5.1584 3.68117 5.07719 3.71481C4.99597 3.74845 4.92218 3.79776 4.86002 3.85992C4.79786 3.92208 4.74855 3.99587 4.71491 4.07709C4.68127 4.1583 4.66396 4.24535 4.66396 4.33325C4.66396 4.42116 4.68127 4.5082 4.71491 4.58942C4.74855 4.67063 4.79786 4.74443 4.86002 4.80659L6.39335 6.33325H1.33335C1.15654 6.33325 0.986974 6.40349 0.861949 6.52851C0.736925 6.65354 0.666687 6.82311 0.666687 6.99992V6.99992ZM9.33335 0.333252H2.66669C2.13625 0.333252 1.62755 0.543966 1.25247 0.919038C0.877401 1.29411 0.666687 1.80282 0.666687 2.33325V4.33325C0.666687 4.51006 0.736925 4.67963 0.861949 4.80466C0.986974 4.92968 1.15654 4.99992 1.33335 4.99992C1.51016 4.99992 1.67973 4.92968 1.80476 4.80466C1.92978 4.67963 2.00002 4.51006 2.00002 4.33325V2.33325C2.00002 2.15644 2.07026 1.98687 2.19528 1.86185C2.32031 1.73682 2.48988 1.66659 2.66669 1.66659H9.33335C9.51016 1.66659 9.67973 1.73682 9.80476 1.86185C9.92978 1.98687 10 2.15644 10 2.33325V11.6666C10 11.8434 9.92978 12.013 9.80476 12.138C9.67973 12.263 9.51016 12.3333 9.33335 12.3333H2.66669C2.48988 12.3333 2.32031 12.263 2.19528 12.138C2.07026 12.013 2.00002 11.8434 2.00002 11.6666V9.66659C2.00002 9.48977 1.92978 9.32021 1.80476 9.19518C1.67973 9.07016 1.51016 8.99992 1.33335 8.99992C1.15654 8.99992 0.986974 9.07016 0.861949 9.19518C0.736925 9.32021 0.666687 9.48977 0.666687 9.66659V11.6666C0.666687 12.197 0.877401 12.7057 1.25247 13.0808C1.62755 13.4559 2.13625 13.6666 2.66669 13.6666H9.33335C9.86379 13.6666 10.3725 13.4559 10.7476 13.0808C11.1226 12.7057 11.3334 12.197 11.3334 11.6666V2.33325C11.3334 1.80282 11.1226 1.29411 10.7476 0.919038C10.3725 0.543966 9.86379 0.333252 9.33335 0.333252Z" fill="#0129E3"/>
</svg>
